<svg id="Capa_1" data-name="Capa 1" xmlns="http://www.w3.org/2000/svg" viewBox="0 0 118.99 95.51"><defs><style>.cls-1{fill:#005285;}</style></defs><title>gp-icons</title><path class="cls-1" d="M110.19,31.3H69.71a35,35,0,1,0-41,43.82l8.63,8.63a3.78,3.78,0,0,0,6.45-2.67V75a35.11,35.11,0,0,0,4.14-1.2v.24a7.69,7.69,0,0,0,7.68,7.68H68.48l6.87,6.87a3.2,3.2,0,0,0,5.47-2.27v-4.6h29.37a7.69,7.69,0,0,0,7.68-7.68V39a7.69,7.69,0,0,0-7.68-7.68M41.62,71.73a1.83,1.83,0,0,0-1.51,1.8v7.54a.1.1,0,0,1-.08.11.1.1,0,0,1-.13,0l-9-9a1.83,1.83,0,0,0-.94-.5A31.33,31.33,0,0,1,32.52,9.82a33,33,0,0,1,3.62-.2A31,31,0,0,1,57,17.6,31.3,31.3,0,0,1,41.62,71.73m72.58,2.34a4,4,0,0,1-4,4H79a1.83,1.83,0,0,0-1.83,1.83v5.34l-6.63-6.63a1.83,1.83,0,0,0-1.29-.54H55.59a4,4,0,0,1-4-4V72.29A34.93,34.93,0,0,0,70.55,35h39.64a4,4,0,0,1,4,4Z"/><path class="cls-1" d="M103.68,45.48a1.83,1.83,0,0,0-2.59,0L82.89,63.69l-8.45-8.45a1.83,1.83,0,0,0-2.59,2.58l9.74,9.74a1.83,1.83,0,0,0,2.58,0l19.5-19.5a1.83,1.83,0,0,0,0-2.59"/><path class="cls-1" d="M36.1,54.7h0a1.83,1.83,0,0,0-1.83,1.83h0a1.83,1.83,0,0,0,1.83,1.83h0a1.83,1.83,0,0,0,1.83-1.83h0A1.83,1.83,0,0,0,36.1,54.7"/><path class="cls-1" d="M44.24,26.94a11.52,11.52,0,0,0-19.72,8.14,1.83,1.83,0,1,0,3.66,0,7.93,7.93,0,0,1,7.92-7.92A8.07,8.07,0,0,1,44,35.09a8,8,0,0,1-5.64,7.59,5.7,5.7,0,0,0-4.11,5.48v.58a1.83,1.83,0,1,0,3.66,0v-.58a2.07,2.07,0,0,1,1.5-2,11.65,11.65,0,0,0,8.25-11.09,11.47,11.47,0,0,0-3.43-8.14"/></svg>