<svg id="Capa_1" data-name="Capa 1" xmlns="http://www.w3.org/2000/svg" viewBox="0 0 118.99 95.51"><defs><style>.cls-1{fill:#005285;}</style></defs><title>gp-icons</title><path class="cls-1" d="M119,28.78a8.36,8.36,0,0,0-1.71-5.15l-9.43-12.06a8.11,8.11,0,0,0-6.38-3A7.86,7.86,0,0,0,97.3,9.71l-9.19,5.72a8.38,8.38,0,0,1-4.23,1,7.66,7.66,0,0,1-3.24-.64l-9-4.36a10.84,10.84,0,0,0-4.7-1,11.7,11.7,0,0,0-6.61,1.9l-1.05.74-3.58-1.78a13.48,13.48,0,0,0-5.86-1.21,14,14,0,0,0-5.38,1l-6.13,2.62a11.22,11.22,0,0,1-4.16.71A11.22,11.22,0,0,1,30,13.73l-6.14-2.62a8.92,8.92,0,0,0-3.5-.68,10.66,10.66,0,0,0-4,.78A9,9,0,0,0,13,13.53L1.85,26a7.26,7.26,0,0,0,.71,10.37L13,45.3,8,50.46A7.37,7.37,0,0,0,8.29,60.9l1,1a7.36,7.36,0,0,0,3.27,1.77,7.28,7.28,0,0,0,1.37,8.85h0l1,1a7.46,7.46,0,0,0,8,1.45,7.3,7.3,0,0,0,2,3.57l1,1a7.45,7.45,0,0,0,9.23.79,7.32,7.32,0,0,0,1.93,3.17l1,1a7.46,7.46,0,0,0,10.48-.25L53,79.5,59,85a7.45,7.45,0,0,0,10.48-.38l.95-1a7.31,7.31,0,0,0,1.66-3l2.3,2.12a7.46,7.46,0,0,0,10.48-.39l.94-1a7.28,7.28,0,0,0,1.89-4.07,7.26,7.26,0,0,0,7.28-2.09l.95-1a7.35,7.35,0,0,0,2-5,7.54,7.54,0,0,0-.2-1.66,7.35,7.35,0,0,0,4.45-2.25l.95-1a7.37,7.37,0,0,0-.39-10.43l-1.77-1.64,16-17.69a8.42,8.42,0,0,0,2.1-5.66M14.41,59.86a3.37,3.37,0,0,1-2.32-.92l-1-1A3.35,3.35,0,0,1,11,53.24L21.09,42.67a3.4,3.4,0,0,1,4.77-.11l1,1a6.34,6.34,0,0,1,1,2.43,3.33,3.33,0,0,1-.6,1.9L16.37,59.23a3.41,3.41,0,0,1-2,.62M22.5,70.4a3.4,3.4,0,0,1-4.76.11l-1-1h0a3.36,3.36,0,0,1-.11-4.74s13.5-14.05,13.61-14.19a3.38,3.38,0,0,1,4.66,0l1,1A3.36,3.36,0,0,1,36,56.3Zm11.07,6a3.39,3.39,0,0,1-4.76.11l-1-1A3.33,3.33,0,0,1,27.5,71l9.4-9.81a3.37,3.37,0,0,1,4.58,0l1,1a3.36,3.36,0,0,1,.11,4.74Zm17.86-1-5.7,6A3.4,3.4,0,0,1,41,81.4l-1-1a3.36,3.36,0,0,1-.11-4.74l5.7-6a3.4,3.4,0,0,1,4.77-.11l1,1a3.36,3.36,0,0,1,.11,4.74M101,59.19a3.32,3.32,0,0,1-.9,2.28l-.94,1a3.4,3.4,0,0,1-4.76.17L78.45,47.92,75.7,50.87l17,15.79a3.35,3.35,0,0,1,.17,4.74l-.94,1a3.4,3.4,0,0,1-4.76.17L71.28,57.87l-2.75,2.95L82.67,73.89a3.35,3.35,0,0,1,.14,4.69l-.95,1a3.4,3.4,0,0,1-4.77.18L63,66.75h0l-2.75,3h0l.05,0,7.07,6.52a3.32,3.32,0,0,1,.06,4.59l-.95,1a3.39,3.39,0,0,1-4.76.17l-6.15-5.7a7.26,7.26,0,0,0-1.46-8.67l-1-1a7.41,7.41,0,0,0-5.11-2c-.14,0-.29,0-.42,0s0-.07,0-.1c0-1.94-2.29-5.34-2.29-5.34l-1-1a7.39,7.39,0,0,0-3.73-1.9,7.27,7.27,0,0,0-1.85-7.79l-1-1a7.43,7.43,0,0,0-5.11-2c-.21,0-.42,0-.64.06a7.35,7.35,0,0,0-2.27-5.11h0l-1-1a7.45,7.45,0,0,0-10.48.25l-2.39,2.5-10.59-9a3.24,3.24,0,0,1-.32-4.64L16.05,16.21a5.09,5.09,0,0,1,1.87-1.26,6.68,6.68,0,0,1,2.46-.48,4.92,4.92,0,0,1,1.91.36l6.13,2.62a15.08,15.08,0,0,0,5.76,1,15.11,15.11,0,0,0,5.75-1l6.13-2.62a10,10,0,0,1,3.79-.66,9.6,9.6,0,0,1,4.05.78l1.64.82-6.25,4.4a7.22,7.22,0,0,0-1.65,10.25h0l.83,1.11a8.07,8.07,0,0,0,6.46,3.16,7.84,7.84,0,0,0,4-1.1l3.74-2.25a6.17,6.17,0,0,1,3.11-.76,6.48,6.48,0,0,1,3.66,1L79.81,39a103.78,103.78,0,0,1,8.13,6.63l12,11.07A3.34,3.34,0,0,1,101,59.19m12.9-27.43-16,17.64-7.24-6.7a106.53,106.53,0,0,0-8.52-7L71.83,28.33a10.46,10.46,0,0,0-6-1.79,10.19,10.19,0,0,0-5.2,1.33l-3.74,2.25a3.8,3.8,0,0,1-2,.52,4,4,0,0,1-3.21-1.54L50.88,28h0a3.21,3.21,0,0,1,.73-4.56l11.06-7.77a7.78,7.78,0,0,1,4.27-1.17,6.85,6.85,0,0,1,2.93.58l9,4.36a11.62,11.62,0,0,0,5,1,12.31,12.31,0,0,0,6.37-1.64l9.2-5.72a3.82,3.82,0,0,1,2-.56A4.08,4.08,0,0,1,104.66,14l9.43,12.06a4.39,4.39,0,0,1,.86,2.68,4.47,4.47,0,0,1-1.06,3"/></svg>