<svg id="Capa_1" data-name="Capa 1" xmlns="http://www.w3.org/2000/svg" viewBox="0 0 118.99 95.51"><defs><style>.cls-1{fill:#005285;}</style></defs><title>gp-icons</title><path class="cls-1" d="M102.85,91.78H98.76V32.37a5,5,0,0,0-5-5H84.6a5,5,0,0,0-5,5V91.78H69.19V59.29a5,5,0,0,0-5-5H55a5,5,0,0,0-5,5V91.78H39.63V75a5,5,0,0,0-5-5H25.47a5,5,0,0,0-5,5V91.78H16.14a1.87,1.87,0,0,0,0,3.73h86.71a1.87,1.87,0,1,0,0-3.73m-67,0H24.18V75a1.29,1.29,0,0,1,1.28-1.28h9.15A1.28,1.28,0,0,1,35.9,75Zm29.57,0H53.75V59.29A1.28,1.28,0,0,1,55,58h9.14a1.29,1.29,0,0,1,1.28,1.28Zm29.56,0H83.31V32.37a1.29,1.29,0,0,1,1.28-1.28h9.15A1.28,1.28,0,0,1,95,32.37Z"/><path class="cls-1" d="M98.75,2a1.86,1.86,0,0,0-2-2H85.42a1.87,1.87,0,1,0,0,3.73h7L73.94,22.17l-7-7a1.86,1.86,0,0,0-2.64,0L30.82,48.75a1.87,1.87,0,1,0,2.64,2.64L65.67,19.18l7,7a1.87,1.87,0,0,0,2.64,0L95,6.37v6.31a1.87,1.87,0,0,0,3.73,0V2.05s0-.06,0-.09"/><path class="cls-1" d="M25.85,54.72A1.87,1.87,0,1,1,24,56.58a1.87,1.87,0,0,1,1.87-1.87"/></svg>