<svg id="Capa_1" data-name="Capa 1" xmlns="http://www.w3.org/2000/svg" viewBox="0 0 597.46 127.32"><defs><style>.cls-1,.cls-2{fill:#fff;}.cls-2{font-size:29.74px;font-family:AvantGardeITCbyBT-Book, AvantGarde Normal BT;}.cls-3{letter-spacing:0.02em;}.cls-4{letter-spacing:0.02em;}.cls-5{letter-spacing:0.02em;}.cls-6{letter-spacing:0.03em;}.cls-7{letter-spacing:0.03em;}.cls-8{letter-spacing:0.02em;}</style></defs><title>logo</title><path class="cls-1" d="M31.83,34.41c-5.42,4.93-16.07,14.79-16.07,32.13,0,24.52,21,43.59,45.64,43.59,25.95,0,45-21.48,45-43.74,0-3.34-.31-29.28-29.26-40.57V80.7H61.4V6.24c39.46.63,60.78,32.14,60.78,60.77,0,34.36-27.84,60.3-60.78,60.3C27.54,127.32,0,101.07,0,67.18A60.29,60.29,0,0,1,31.83,14.36Z"/><polygon class="cls-1" points="34.88 43.71 34.88 0 56.32 21.44 34.88 43.71"/><path class="cls-1" d="M175.2,31c-1.93-2.12-5.78-6.28-12.56-6.28-9.57,0-17,8.2-17,17.84a17.56,17.56,0,0,0,17.1,17.59c1.3,0,11.44-.13,15.85-11.44H157.11V42.61h29.1C186,58,173.64,66.36,162.45,66.36a23.55,23.55,0,0,1-23.56-23.75c0-13.24,10.26-24,23.5-24A23.58,23.58,0,0,1,183,31Z"/><path class="cls-1" d="M192.34,65.49V31h6v3.11h.13c2.73-3.85,7.15-4,8.77-4v6.65A12.17,12.17,0,0,0,202.6,38c-2.05,1.12-3.79,3.73-3.79,8.64V65.49Z"/><path class="cls-1" d="M219.86,31V49.7c0,8.52,3.79,10.75,8.58,10.75,5.35,0,9-3.42,9-10.94V31h6.47V65.49H238V61.76h-.13c-1.74,3-5.78,4.6-10.13,4.6a14.7,14.7,0,0,1-9.82-3.42c-2.86-2.49-4.54-6.34-4.54-13.24V31Z"/><path class="cls-1" d="M252.23,31h5.91v5.29h.13a14.55,14.55,0,0,1,12.25-6.22c11.69,0,17.84,9.39,17.84,18.59,0,8.7-6.53,17.65-17.41,17.65-7.21,0-10.82-3.67-12.12-5.84h-.13V77h-6.46Zm17.84,5c-6.78,0-11.5,5.84-11.5,12.19,0,7,5.16,12.24,11.69,12.24a11.72,11.72,0,0,0,11.63-12.12c0-6.15-4.79-12.31-11.81-12.31"/><path class="cls-1" d="M311.65,66.36A18.51,18.51,0,0,1,293.06,48c0-9.39,7.89-17.9,18.59-17.9a18.29,18.29,0,0,1,18.59,18,18.53,18.53,0,0,1-18.59,18.21m0-30.34a12.22,12.22,0,1,0,12.12,12.13A12.14,12.14,0,0,0,311.65,36"/><path class="cls-1" d="M360.61,65.49H353.9v-46h13.3c11,0,16.23,5.72,16.23,13.92s-5.22,13.93-16.23,13.93h-6.59Zm0-24.31h6.59c7.65,0,9.52-4.35,9.52-7.77s-1.87-7.77-9.52-7.77h-6.59Z"/><path class="cls-1" d="M415.82,65.49V60.14h-.12c-2.49,4.23-7,6.21-11.69,6.21-11.62,0-18.28-8.89-18.28-18,0-8.39,5.91-18.27,18.28-18.27,4.79,0,9.2,2,11.69,5.78h.12V31h6.47V65.49ZM404,36c-8,0-11.81,6.9-11.81,12.31,0,6.22,4.91,12.12,11.76,12.12a12,12,0,0,0,12-12.12C415.94,41,410.66,36,404,36"/><path class="cls-1" d="M476.23,65.49V46.34c0-2.92-.37-10.32-8.15-10.32-8.26,0-8.14,7.4-8.2,10.26V65.49h-6.46V46.34c.06-2.86-.06-4.79-1.43-7.09a7.17,7.17,0,0,0-6.4-3.23c-8.51,0-8.51,7.71-8.51,10.26V65.49H430.6V31h6v3.73h.12c1.24-1.43,3.48-4.67,9.89-4.67,4.17,0,9,2,10.7,5.78,1.12-1.74,3.67-5.78,11.38-5.78,5.78,0,9.89,2.36,12.13,6.22a17.12,17.12,0,0,1,1.93,8.39V65.49Z"/><path class="cls-1" d="M490.94,31h5.9v5.29H497a14.55,14.55,0,0,1,12.25-6.22c11.69,0,17.84,9.39,17.84,18.59,0,8.7-6.53,17.65-17.41,17.65-7.21,0-10.81-3.67-12.12-5.84h-.12V77h-6.47Zm17.84,5c-6.78,0-11.5,5.84-11.5,12.19,0,7,5.16,12.24,11.68,12.24a11.72,11.72,0,0,0,11.63-12.12c0-6.15-4.79-12.31-11.81-12.31"/><path class="cls-1" d="M561.86,65.49V60.14h-.12c-2.49,4.23-7,6.21-11.69,6.21-11.62,0-18.28-8.89-18.28-18,0-8.39,5.91-18.27,18.28-18.27,4.79,0,9.2,2,11.69,5.78h.12V31h6.47V65.49ZM550,36c-8,0-11.81,6.9-11.81,12.31,0,6.22,4.91,12.12,11.75,12.12a12,12,0,0,0,12-12.12C562,41,556.69,36,550,36"/><path class="cls-1" d="M590.18,40.19c-.37-2.79-2-4.17-4.41-4.17s-4,1.49-4,3.67c0,2.86,2.49,3.61,5.35,4.48,2.67.8,10.38,3,10.38,11.19,0,6.1-4.23,11-11.56,11-4.35,0-12.19-2.74-12.19-12.18h6.47c.25,3.85,2.23,6.28,5.84,6.28,2.92,0,5-1.8,5-4.72s-2.67-4.11-6-5.29c-3.73-1.36-9.7-3-9.7-10.38,0-5.1,4.29-9.95,10.82-9.95,3.92,0,10.38,2.43,10.56,10.07Z"/><text class="cls-2" transform="translate(147.42 109.85)"><tspan class="cls-3">Yo</tspan><tspan class="cls-4" x="33.75" y="0">ur </tspan><tspan class="cls-3" x="68.31" y="0">wor</tspan><tspan class="cls-5" x="116.63" y="0">l</tspan><tspan class="cls-6" x="122.73" y="0">dw</tspan><tspan class="cls-5" x="163.58" y="0">i</tspan><tspan class="cls-7" x="169.67" y="0">de</tspan><tspan class="cls-4" x="207.91" y="0"> </tspan><tspan class="cls-3" x="217.02" y="0">b</tspan><tspan class="cls-4" x="236.49" y="0">usin</tspan><tspan class="cls-3" x="289.49" y="0">e</tspan><tspan class="cls-8" x="308.26" y="0">ss </tspan><tspan class="cls-7" x="341.93" y="0">part</tspan><tspan class="cls-4" x="397.92" y="0">n</tspan><tspan class="cls-3" x="415.23" y="0">e</tspan><tspan x="433.99" y="0">r</tspan></text></svg>